<svg width="51" height="46" viewBox="0 0 51 46" fill="none" xmlns="http://www.w3.org/2000/svg">
<path d="M30.6511 33.1416C28.4158 38.2966 28.5394 45.5009 28.5394 45.5009H21.2115C21.2115 45.5009 21.5836 42.9546 19.9689 36.3098C18.3675 29.7169 12.3008 19.0254 12.2065 18.8593C12.3527 19.0121 20.2347 27.2344 22.1431 26.3107C24.0076 25.4084 28.3175 11.635 28.5899 10.7646C28.5979 10.7367 28.6032 10.7207 28.6032 10.7207C28.6032 10.7207 24.9539 29.9747 27.5001 30.1767C30.0145 30.376 39.4209 20.353 39.6535 20.1058C39.4475 20.3464 32.8532 28.0676 30.6524 33.1429L30.6511 33.1416Z" fill="#5C5656"/>
<path d="M28.9062 21.6315C28.9062 21.6315 28.8796 24.8569 28.7826 26.3307C29.2942 25.7592 30.1527 24.611 30.2923 23.201C30.4943 21.173 29.1308 19.3776 29.1308 19.3776C29.1308 19.3776 27.4403 20.87 27.2383 22.8966C27.0975 24.3053 27.7128 25.6011 28.1022 26.2616C28.2975 24.7971 28.9075 21.6301 28.9075 21.6301L28.9062 21.6315Z" fill="#7E9E3E"/>
<path d="M34.7961 18.5018C34.7961 18.5018 36.1716 21.4188 36.7218 22.789C36.9344 22.0527 37.2095 20.6454 36.7258 19.3151C36.0281 17.4001 34.0214 16.3728 34.0214 16.3728C34.0214 16.3728 33.1442 18.4499 33.8419 20.365C34.327 21.6953 35.4433 22.5963 36.0799 23.0229C35.6201 21.6195 34.7975 18.5004 34.7975 18.5004L34.7961 18.5018Z" fill="#7E9E3E"/>
<path d="M42.8497 24.3824C42.8497 24.3824 39.817 23.286 38.4588 22.7039C38.8269 23.3764 39.6256 24.5671 40.9081 25.1678C42.754 26.0317 44.9003 25.3433 44.9003 25.3433C44.9003 25.3433 44.055 23.2528 42.2091 22.389C40.9267 21.7883 39.5007 21.9385 38.7485 22.0847C40.0642 22.7544 42.8484 24.3824 42.8484 24.3824H42.8497Z" fill="#7E9E3E"/>
<path d="M39.5658 27.94C39.5658 27.94 37.6202 25.3672 36.7989 24.1405C36.7417 24.9047 36.7617 26.34 37.5099 27.5413C38.5863 29.2716 40.7618 29.8644 40.7618 29.8644C40.7618 29.8644 41.1924 27.6503 40.116 25.92C39.3678 24.7173 38.0906 24.0648 37.3796 23.7791C38.1172 25.0588 39.5644 27.94 39.5644 27.94H39.5658Z" fill="#7E9E3E"/>
<path d="M36.7643 31.6425C36.7643 31.6425 35.4659 28.6896 34.9516 27.3061C34.7191 28.0371 34.4068 29.4365 34.8573 30.7787C35.5045 32.711 37.4846 33.7901 37.4846 33.7901C37.4846 33.7901 38.4149 31.7369 37.769 29.8032C37.3198 28.461 36.2274 27.5307 35.6015 27.0869C36.0241 28.5022 36.7657 31.6412 36.7657 31.6412L36.7643 31.6425Z" fill="#7E9E3E"/>
<path d="M40.5585 10.2968C40.5585 10.2968 39.3226 13.2763 38.6794 14.6053C39.3678 14.2677 40.5944 13.5248 41.2536 12.2729C42.2024 10.4695 41.6137 8.29269 41.6137 8.29269C41.6137 8.29269 39.486 9.0409 38.5372 10.8443C37.878 12.0975 37.9617 13.5301 38.0734 14.2876C38.8043 13.0039 40.5585 10.2981 40.5585 10.2981V10.2968Z" fill="#7E9E3E"/>
<path d="M45.0637 19.0413C45.0637 19.0413 42.0815 20.2706 40.6861 20.7544C41.4104 21.0029 42.8032 21.3471 44.156 20.9285C46.103 20.3264 47.2273 18.3715 47.2273 18.3715C47.2273 18.3715 45.1953 17.3934 43.2484 17.9968C41.8955 18.4154 40.9413 19.4865 40.4828 20.1005C41.9074 19.7111 45.0624 19.0413 45.0624 19.0413H45.0637Z" fill="#7E9E3E"/>
<path d="M48.7077 23.0043C48.7077 23.0043 45.4823 22.9591 44.0098 22.8528C44.5773 23.3671 45.7215 24.2322 47.1302 24.3811C49.1569 24.595 50.9603 23.2422 50.9603 23.2422C50.9603 23.2422 49.4785 21.5424 47.4518 21.3285C46.0445 21.1796 44.7447 21.7869 44.0816 22.1723C45.5448 22.3757 48.7077 23.0043 48.7077 23.0043Z" fill="#7E9E3E"/>
<path d="M45.8345 30.3255C45.8345 30.3255 43.2138 28.4451 42.0669 27.5161C42.2383 28.263 42.6835 29.6265 43.7533 30.5541C45.2936 31.8884 47.5475 31.8086 47.5475 31.8086C47.5475 31.8086 47.303 29.5667 45.7627 28.2337C44.6929 27.3075 43.2789 27.0629 42.5148 26.9991C43.5992 28.0025 45.8345 30.3255 45.8345 30.3255Z" fill="#7E9E3E"/>
<path d="M7.67872 31.9203C7.67872 31.9203 9.77848 29.4723 10.8031 28.4078C10.0443 28.5142 8.6462 28.8397 7.63088 29.8258C6.16902 31.2465 6.05341 33.4978 6.05341 33.4978C6.05341 33.4978 8.30732 33.4473 9.76918 32.0279C10.7845 31.0418 11.15 29.6544 11.2789 28.8982C10.1865 29.8923 7.67739 31.9189 7.67739 31.9189L7.67872 31.9203Z" fill="#7E9E3E"/>
<path d="M47.4239 14.4564C47.4239 14.4564 44.4417 15.6857 43.0463 16.1695C43.7706 16.418 45.1633 16.7622 46.5162 16.3436C48.4631 15.7415 49.5874 13.7866 49.5874 13.7866C49.5874 13.7866 47.5554 12.8085 45.6085 13.4119C44.2556 13.8305 43.3014 14.9016 42.843 15.5156C44.2676 15.1262 47.4225 14.4564 47.4225 14.4564H47.4239Z" fill="#7E9E3E"/>
<path d="M45.8797 9.56585C45.8797 9.56585 43.8105 12.039 42.7992 13.1155C43.5567 12.9999 44.9494 12.657 45.9528 11.659C47.3974 10.221 47.4851 7.96844 47.4851 7.96844C47.4851 7.96844 45.2312 8.04685 43.7866 9.48346C42.7832 10.4828 42.435 11.8743 42.3154 12.6304C43.3959 11.6231 45.8797 9.56585 45.8797 9.56585Z" fill="#7E9E3E"/>
<path d="M32.5622 22.8063C32.5622 22.8063 32.1037 25.9984 31.81 27.4457C32.3934 26.9486 33.3981 25.924 33.725 24.5472C34.1968 22.5644 33.0858 20.6028 33.0858 20.6028C33.0858 20.6028 31.2106 21.8547 30.7388 23.8375C30.4106 25.2143 30.8478 26.5818 31.1442 27.2888C31.5336 25.8642 32.5622 22.8076 32.5622 22.8076V22.8063Z" fill="#7E9E3E"/>
<path d="M33.5562 13.2112C33.5562 13.2112 30.6232 11.8703 29.3182 11.1792C29.6305 11.8796 30.3295 13.1328 31.5575 13.8358C33.3263 14.8485 35.5218 14.3368 35.5218 14.3368C35.5218 14.3368 34.8506 12.1839 33.0818 11.1712C31.8525 10.4682 30.4186 10.5001 29.6571 10.5852C30.9143 11.3613 33.5562 13.2112 33.5562 13.2112Z" fill="#7E9E3E"/>
<path d="M35.8686 7.65746C35.8686 7.65746 32.9622 9.05553 31.596 9.61768C32.3336 9.82499 33.7436 10.0895 35.0699 9.59375C36.9796 8.88143 37.9896 6.8654 37.9896 6.8654C37.9896 6.8654 35.9058 6.00556 33.9961 6.71789C32.6698 7.21359 31.7767 8.33656 31.3555 8.97579C32.7549 8.50534 35.8673 7.65746 35.8673 7.65746H35.8686Z" fill="#7E9E3E"/>
<path d="M35.5563 2.32702C35.5563 2.32702 33.7914 5.02613 32.913 6.21422C33.6519 6.00956 34.9955 5.50722 35.8739 4.39754C37.1391 2.80013 36.9623 0.552856 36.9623 0.552856C36.9623 0.552856 34.7337 0.894399 33.4685 2.49181C32.5887 3.60149 32.4067 5.0248 32.3761 5.79029C33.3316 4.66333 35.5563 2.32835 35.5563 2.32835V2.32702Z" fill="#7E9E3E"/>
<path d="M31.0006 17.8426C31.0006 17.8426 29.2623 15.1262 28.5394 13.8385C28.4224 14.596 28.3307 16.0273 28.9819 17.2845C29.9202 19.0932 32.0425 19.8533 32.0425 19.8533C32.0425 19.8533 32.6445 17.6805 31.7063 15.8718C31.0551 14.6146 29.8311 13.865 29.1454 13.5235C29.782 14.8564 30.9993 17.8426 30.9993 17.8426H31.0006Z" fill="#7E9E3E"/>
<path d="M24.4436 7.7744C24.4436 7.7744 26.9965 9.74525 28.1115 10.7141C27.9653 9.96187 27.5693 8.58241 26.5327 7.61891C25.0403 6.23148 22.785 6.23148 22.785 6.23148C22.785 6.23148 22.9512 8.48008 24.4436 9.86751C25.4802 10.831 26.8849 11.1247 27.6464 11.2151C26.5978 10.1745 24.4449 7.7744 24.4449 7.7744H24.4436Z" fill="#7E9E3E"/>
<path d="M22.0993 15.3216C22.0993 15.3216 25.0602 14.0431 26.4476 13.5368C25.7193 13.3002 24.32 12.9786 22.975 13.4198C21.0388 14.0551 19.9464 16.0273 19.9464 16.0273C19.9464 16.0273 21.9943 16.9708 23.9306 16.3369C25.2755 15.8957 26.2137 14.8099 26.6603 14.1866C25.2423 14.6 22.0993 15.3216 22.0993 15.3216Z" fill="#7E9E3E"/>
<path d="M7.52591 15.8585C7.52591 15.8585 10.4709 17.1742 11.7826 17.8533C11.4636 17.1556 10.7539 15.909 9.51934 15.2166C7.74253 14.2199 5.54974 14.7501 5.54974 14.7501C5.54974 14.7501 6.23947 16.8964 8.01762 17.8931C9.25222 18.5855 10.6862 18.5403 11.4477 18.4486C10.1838 17.6845 7.52591 15.8572 7.52591 15.8572V15.8585Z" fill="#7E9E3E"/>
<path d="M2.19278 17.4798C2.19278 17.4798 5.37564 18.0034 6.81623 18.3277C6.33116 17.735 5.3278 16.709 3.95764 16.3529C1.98547 15.8399 0 16.911 0 16.911C0 16.911 1.21334 18.8114 3.18552 19.3244C4.55567 19.6806 5.93115 19.2726 6.64347 18.9908C5.2268 18.5722 2.19278 17.4811 2.19278 17.4811V17.4798Z" fill="#7E9E3E"/>
<path d="M12.0151 12.2995C12.0151 12.2995 12.6982 15.4518 12.9268 16.911C13.3002 16.2412 13.885 14.9322 13.7122 13.5262C13.4637 11.5035 11.7387 10.0509 11.7387 10.0509C11.7387 10.0509 10.4164 11.8783 10.6649 13.9009C10.8377 15.3056 11.7227 16.4353 12.2464 16.9947C12.1148 15.5236 12.0138 12.2995 12.0138 12.2995H12.0151Z" fill="#7E9E3E"/>
<path d="M7.36774 10.0562C7.36774 10.0562 9.06748 12.7965 9.77183 14.0949C9.89941 13.3388 10.011 11.9088 9.37712 10.6423C8.46413 8.8203 6.35241 8.02957 6.35241 8.02957C6.35241 8.02957 5.71983 10.1944 6.63149 12.0164C7.26541 13.2829 8.47742 14.0498 9.15917 14.4006C8.54254 13.0584 7.36641 10.0562 7.36641 10.0562H7.36774Z" fill="#7E9E3E"/>
<path d="M9.65755 26.146C9.65755 26.146 12.6185 24.8675 14.0059 24.3612C13.2776 24.1246 11.8782 23.803 10.5333 24.2442C8.59704 24.8795 7.50464 26.8516 7.50464 26.8516C7.50464 26.8516 9.55257 27.7952 11.4889 27.1613C12.8338 26.7201 13.772 25.6343 14.2185 25.011C12.8005 25.4243 9.65755 26.146 9.65755 26.146Z" fill="#7E9E3E"/>
<path d="M7.76511 21.7258C7.76511 21.7258 10.8456 20.7703 12.2783 20.4142C11.5792 20.1005 10.2224 19.6327 8.83758 19.9278C6.84414 20.3517 5.5484 22.1976 5.5484 22.1976C5.5484 22.1976 7.48337 23.3538 9.4768 22.9299C10.8616 22.6348 11.9088 21.6541 12.4204 21.0839C10.9666 21.3444 7.76378 21.7258 7.76378 21.7258H7.76511Z" fill="#7E9E3E"/>
<path d="M15.9183 15.8133C15.9183 15.8133 14.9215 18.8805 14.3846 20.256C15.0438 19.8653 16.2093 19.028 16.7675 17.727C17.5702 15.8545 16.8113 13.7308 16.8113 13.7308C16.8113 13.7308 14.7501 14.6438 13.9461 16.5176C13.3879 17.8187 13.5846 19.2393 13.756 19.9875C14.382 18.6506 15.9183 15.8133 15.9183 15.8133Z" fill="#7E9E3E"/>
<path d="M18.4938 5.27464C18.4938 5.27464 21.0241 7.2734 22.1285 8.2555C21.9916 7.50198 21.6102 6.11853 20.5843 5.14308C19.1065 3.7397 16.8525 3.71445 16.8525 3.71445C16.8525 3.71445 16.9934 5.96438 18.4712 7.36909C19.4972 8.34454 20.8992 8.65419 21.6581 8.75253C20.6215 7.7 18.4951 5.27597 18.4951 5.27597L18.4938 5.27464Z" fill="#7E9E3E"/>
<path d="M30.0903 5.01684C30.0903 5.01684 29.572 8.19969 29.2518 9.64161C29.8445 9.15522 30.8678 8.15052 31.2213 6.77904C31.7303 4.80553 30.6565 2.82272 30.6565 2.82272C30.6565 2.82272 28.7574 4.03872 28.2497 6.01223C27.8962 7.38371 28.3069 8.75786 28.5899 9.47018C29.0059 8.05351 30.0917 5.01551 30.0917 5.01551L30.0903 5.01684Z" fill="#7E9E3E"/>
<path d="M24.5565 1.96952C24.5565 1.96952 26.3984 4.6168 27.1706 5.87533C27.2583 5.11384 27.2941 3.67989 26.5951 2.44927C25.5878 0.677769 23.4375 0 23.4375 0C23.4375 0 22.9192 2.19411 23.9266 3.96561C24.6256 5.19623 25.8775 5.89925 26.5765 6.21288C25.8894 4.90519 24.5565 1.96819 24.5565 1.96819V1.96952Z" fill="#7E9E3E"/>
<path d="M13.0491 6.96773C13.0491 6.96773 14.5109 9.84226 15.1036 11.1951C15.295 10.4523 15.5263 9.03692 15.0026 7.72257C14.2478 5.83014 12.2105 4.86398 12.2105 4.86398C12.2105 4.86398 11.3972 6.9664 12.152 8.86016C12.677 10.1758 13.8199 11.0423 14.4684 11.449C13.9674 10.0602 13.0491 6.96773 13.0491 6.96773Z" fill="#7E9E3E"/>
<path d="M19.5769 19.0294C19.5769 19.0294 17.0931 21.0879 15.9036 21.9624C16.6691 21.985 18.1017 21.9013 19.2699 21.1012C20.951 19.949 21.4454 17.7496 21.4454 17.7496C21.4454 17.7496 19.2154 17.4173 17.5343 18.5696C16.3661 19.3696 15.7721 20.676 15.5169 21.3989C16.7621 20.6042 19.5769 19.0307 19.5769 19.0307V19.0294Z" fill="#7E9E3E"/>
<path d="M22.6082 21.1597C22.6082 21.1597 21.5769 24.215 21.0241 25.5851C21.6886 25.2024 22.8621 24.3784 23.4348 23.084C24.2601 21.2208 23.5252 19.0892 23.5252 19.0892C23.5252 19.0892 21.4534 19.9782 20.6281 21.8428C20.0553 23.1372 20.2347 24.5605 20.3982 25.31C21.04 23.9797 22.6082 21.161 22.6082 21.161V21.1597Z" fill="#7E9E3E"/>
<path d="M13.4783 31.5628C13.4783 31.5628 14.8963 28.6656 15.6219 27.3792C14.9136 27.6729 13.6431 28.3387 12.9068 29.5481C11.8477 31.289 12.3008 33.4977 12.3008 33.4977C12.3008 33.4977 14.471 32.8838 15.5289 31.1428C16.2638 29.9335 16.2704 28.4982 16.2053 27.7354C15.3973 28.9713 13.477 31.5628 13.477 31.5628H13.4783Z" fill="#7E9E3E"/>
<path d="M18.5045 10.8257C18.5045 10.8257 21.7298 10.8324 23.2037 10.9214C22.6295 10.4137 21.4747 9.56187 20.066 9.4303C18.0367 9.24026 16.2492 10.6144 16.2492 10.6144C16.2492 10.6144 17.7509 12.2969 19.7803 12.4856C21.1903 12.6171 22.482 11.9952 23.1399 11.6018C21.6753 11.4158 18.5045 10.8244 18.5045 10.8244V10.8257Z" fill="#7E9E3E"/>
<path d="M40.2701 15.9369C40.2701 15.9369 38.5172 18.644 37.6428 19.8347C38.3804 19.6274 39.7226 19.1184 40.5971 18.0047C41.8556 16.402 41.6695 14.1548 41.6695 14.1548C41.6695 14.1548 39.4422 14.5056 38.1837 16.1083C37.3092 17.222 37.1325 18.6453 37.1059 19.4108C38.0561 18.2798 40.2701 15.9356 40.2701 15.9356V15.9369Z" fill="#7E9E3E"/>
<path d="M24.2389 35.2148C24.332 39.712 24.3266 43.2005 24.2987 45.4996H21.2102C21.2102 45.4996 21.5823 42.9533 19.9676 36.3085C18.3663 29.7155 12.2996 19.0241 12.2052 18.8579C12.3514 19.0108 20.2334 27.233 22.1418 26.3094C24.0064 25.407 28.3162 11.6337 28.5886 10.7632C28.3268 11.6895 24.0662 26.9061 24.2376 35.2148H24.2389Z" fill="#4C4545"/>
</svg>
